<mxfile host="app.diagrams.net" modified="2024-07-13T08:01:37.979Z" agent="Mozilla/5.0 (X11; Linux x86_64) AppleWebKit/537.36 (KHTML, like Gecko) Chrome/125.0.0.0 Safari/537.36" etag="O_lmLhShWrdATl24tXj1" version="24.6.5" type="github">
  <diagram name="Page-1" id="_o25Y0hnvnBNlwOE-ZOq">
    <mxGraphModel dx="714" dy="1242" grid="0" gridSize="10" guides="1" tooltips="1" connect="1" arrows="1" fold="1" page="0" pageScale="1" pageWidth="827" pageHeight="1169" math="0" shadow="0">
      <root>
        <mxCell id="0" />
        <mxCell id="1" parent="0" />
        <mxCell id="my3sF_0WaMDkDjCd8A6k-1" value="joinRoom" style="rounded=0;whiteSpace=wrap;html=1;" vertex="1" parent="1">
          <mxGeometry x="154" y="-109" width="120" height="60" as="geometry" />
        </mxCell>
        <mxCell id="my3sF_0WaMDkDjCd8A6k-2" value="markTile" style="rounded=0;whiteSpace=wrap;html=1;" vertex="1" parent="1">
          <mxGeometry x="150" y="-25" width="120" height="60" as="geometry" />
        </mxCell>
        <mxCell id="my3sF_0WaMDkDjCd8A6k-3" value="" style="rounded=0;whiteSpace=wrap;html=1;" vertex="1" parent="1">
          <mxGeometry x="150" y="141" width="120" height="60" as="geometry" />
        </mxCell>
        <mxCell id="my3sF_0WaMDkDjCd8A6k-4" value="winnerAnnounced" style="rounded=0;whiteSpace=wrap;html=1;" vertex="1" parent="1">
          <mxGeometry x="150" y="56" width="120" height="60" as="geometry" />
        </mxCell>
      </root>
    </mxGraphModel>
  </diagram>
</mxfile>
